<?xml version="1.0" encoding="UTF-8" standalone="no"?>
<!-- Created with Inkscape (http://www.inkscape.org/) -->

<svg
   width="112.27074mm"
   height="117.20232mm"
   viewBox="0 0 112.27074 117.20232"
   version="1.1"
   id="svg1"
   xmlns="http://www.w3.org/2000/svg"
   xmlns:svg="http://www.w3.org/2000/svg">
  <defs
     id="defs1" />
  <g
     id="layer1"
     transform="translate(-109.19587,-60.656581)">
    <g
       id="rect14"
       style="opacity:1"
       transform="matrix(1,0,0,0.98838719,0,2.3218725)">
      <path
         style="baseline-shift:baseline;display:inline;overflow:visible;vector-effect:none;fill:#6f00ff;enable-background:accumulate;stop-color:#000000;stop-opacity:1"
         d="m 109.19587,59.020098 h 112.27074 l 1e-5,118.578662 -112.27075,-0.43285 c 0,-56.24771 0,-87.982238 0,-118.145812 z"
         id="path32" />
    </g>
    <g
       id="path15"
       style="opacity:1"
       transform="matrix(1,0,0,0.98838719,62.933088,-19.759911)">
      <path
         style="baseline-shift:baseline;display:inline;overflow:visible;vector-effect:none;fill:#ff0000;enable-background:accumulate;stop-color:#000000;stop-opacity:1"
         d="m 64.074233,120.34572 a 0.0370554,0.0370554 0 0 1 -0.03706,0.037 0.0370554,0.0370554 0 0 1 -0.03705,-0.037 0.0370554,0.0370554 0 0 1 0.03705,-0.0371 0.0370554,0.0370554 0 0 1 0.03706,0.0371 z"
         id="path34" />
      <path
         style="baseline-shift:baseline;display:inline;overflow:visible;vector-effect:none;enable-background:accumulate;stop-color:#000000;stop-opacity:1"
         d="m 64.037109,120.17578 c -0.09196,0 -0.169922,0.078 -0.169922,0.16992 10e-7,0.092 0.07796,0.16992 0.169922,0.16993 0.09196,-1e-5 0.169922,-0.078 0.169922,-0.16993 0,-0.092 -0.07796,-0.16992 -0.169922,-0.16992 z m 0,0.0742 c 0.05103,0 0.0957,0.0447 0.0957,0.0957 0,0.051 -0.04467,0.0957 -0.0957,0.0957 -0.05103,0 -0.0957,-0.0447 -0.0957,-0.0957 0,-0.051 0.04467,-0.0957 0.0957,-0.0957 z"
         id="path35" />
    </g>
    <g
       id="path16"
       style="opacity:1"
       transform="matrix(1,0,0,0.98838719,62.933088,-19.759911)">
      <path
         style="baseline-shift:baseline;display:inline;overflow:visible;vector-effect:none;fill:#ff0000;enable-background:accumulate;stop-color:#000000;stop-opacity:1"
         d="m 64.074233,120.34572 a 0.0370554,0.0370554 0 0 1 -0.03706,0.037 0.0370554,0.0370554 0 0 1 -0.03705,-0.037 0.0370554,0.0370554 0 0 1 0.03705,-0.0371 0.0370554,0.0370554 0 0 1 0.03706,0.0371 z"
         id="path36" />
      <path
         style="baseline-shift:baseline;display:inline;overflow:visible;vector-effect:none;enable-background:accumulate;stop-color:#000000;stop-opacity:1"
         d="m 64.037109,120.17578 c -0.09196,0 -0.169922,0.078 -0.169922,0.16992 10e-7,0.092 0.07796,0.16992 0.169922,0.16993 0.09196,-1e-5 0.169922,-0.078 0.169922,-0.16993 0,-0.092 -0.07796,-0.16992 -0.169922,-0.16992 z m 0,0.0742 c 0.05103,0 0.0957,0.0447 0.0957,0.0957 0,0.051 -0.04467,0.0957 -0.0957,0.0957 -0.05103,0 -0.0957,-0.0447 -0.0957,-0.0957 0,-0.051 0.04467,-0.0957 0.0957,-0.0957 z"
         id="path37" />
    </g>
    <g
       id="path17"
       style="opacity:1"
       transform="matrix(1,0,0,0.98838719,62.933088,-19.759911)">
      <path
         style="baseline-shift:baseline;display:inline;overflow:visible;vector-effect:none;fill:#ff0000;enable-background:accumulate;stop-color:#000000;stop-opacity:1"
         d="m 68.490585,119.60966 a 0.0370554,0.0370554 0 0 1 -0.03706,0.037 0.0370554,0.0370554 0 0 1 -0.03706,-0.037 0.0370554,0.0370554 0 0 1 0.03706,-0.0371 0.0370554,0.0370554 0 0 1 0.03706,0.0371 z"
         id="path38" />
      <path
         style="baseline-shift:baseline;display:inline;overflow:visible;vector-effect:none;enable-background:accumulate;stop-color:#000000;stop-opacity:1"
         d="m 68.453125,119.43945 c -0.09196,0 -0.167969,0.078 -0.167969,0.16993 0,0.092 0.07601,0.16992 0.167969,0.16992 0.09196,0 0.169922,-0.078 0.169922,-0.16992 0,-0.092 -0.07796,-0.16993 -0.169922,-0.16993 z m 0,0.0742 c 0.05103,0 0.0957,0.0447 0.0957,0.0957 0,0.051 -0.04467,0.0957 -0.0957,0.0957 -0.05103,0 -0.0957,-0.0447 -0.0957,-0.0957 0,-0.051 0.04467,-0.0957 0.0957,-0.0957 z"
         id="path39" />
    </g>
    <g
       id="path18"
       style="opacity:1"
       transform="matrix(1,0,0,0.98838719,62.933088,-19.759911)">
      <path
         style="baseline-shift:baseline;display:inline;overflow:visible;vector-effect:none;fill:#ff0000;enable-background:accumulate;stop-color:#000000;stop-opacity:1"
         d="m 71.47684,81.525498 c 0.0056,2.06235 0.110133,4.120168 0.218578,6.179158 0.09813,3.099165 0.83757,6.108018 1.621451,9.090607 1.180774,3.922297 2.433725,7.824457 3.529243,11.771897 0.431194,1.74982 0.913677,3.48951 1.157552,5.27773 0.01738,0.17521 0.03478,0.35043 0.05218,0.52565 0,0 3.517726,1.74866 3.517726,1.74866 v 0 c -0.01802,-0.1809 -0.03606,-0.36179 -0.05409,-0.54268 -0.250952,-1.83098 -0.779261,-3.60008 -1.251839,-5.38344 -1.140275,-3.94009 -2.456482,-7.82846 -3.567075,-11.777839 -0.71609,-2.96019 -1.516666,-5.923539 -1.586818,-8.989383 -0.08736,-2.034524 -0.218429,-4.068765 -0.11475,-6.105731 z"
         id="path40" />
      <path
         style="baseline-shift:baseline;display:inline;overflow:visible;vector-effect:none;enable-background:accumulate;stop-color:#000000;stop-opacity:1"
         d="m 71.376953,81.361328 v 0.164063 c 0.0056,2.065548 0.110299,4.124479 0.21875,6.183593 0.09882,3.11231 0.84101,6.128325 1.625,9.111328 v 0.002 0.002 c 1.181126,3.923458 2.434492,7.824658 3.529297,11.769528 l -0.002,-0.002 c 0.431656,1.75169 0.913588,3.48825 1.15625,5.26758 0.01725,0.17392 0.03546,0.34755 0.05273,0.52148 l 0.0039,0.0547 3.730469,1.85351 -0.01758,-0.17968 c -0.01802,-0.18091 -0.03666,-0.36209 -0.05469,-0.54297 v -0.002 -0.002 c -0.25234,-1.8411 -0.781861,-3.61318 -1.253907,-5.39453 l -0.002,-0.002 c -1.140757,-3.94176 -2.456968,-7.82865 -3.566406,-11.773439 v -0.0039 C 76.080488,95.427907 75.28254,92.4724 75.212782,89.423747 v -0.002 C 75.125362,87.385794 74.996211,85.355361 75.0995,83.326044 l 0.002,-0.06641 z m 0.205078,0.330078 3.31836,1.691406 c -0.09773,2.021596 0.02696,4.036511 0.113281,6.046875 0.07081,3.081068 0.874324,6.051933 1.589844,9.009766 v 0.002 c 1.111536,3.952737 2.428913,7.842077 3.568359,11.779297 0.472984,1.78474 0.998568,3.54891 1.248047,5.36914 0.01194,0.11976 0.02517,0.23962 0.03711,0.35938 l -3.30664,-1.64258 c -0.01559,-0.15697 -0.03131,-0.31375 -0.04687,-0.4707 v -0.002 -0.002 c -0.245088,-1.79711 -0.729425,-3.54112 -1.160157,-5.28906 v -0.002 c -1.095847,-3.94863 -2.349236,-7.85174 -3.529297,-11.771492 l -0.002,-0.0039 c -0.783204,-2.980197 -1.51954,-5.980544 -1.617187,-9.064453 v -0.002 C 71.689358,85.695582 71.592536,83.6949 71.58199,81.691272 Z"
         id="path41" />
    </g>
    <g
       id="path19"
       style="opacity:1"
       transform="matrix(1,0,0,0.98838719,62.933088,-19.759911)">
      <path
         style="baseline-shift:baseline;display:inline;overflow:visible;vector-effect:none;fill:#ff0000;enable-background:accumulate;stop-color:#000000;stop-opacity:1"
         d="m 125.2118,83.411003 c 0.0436,2.005404 0.039,4.011563 0.0557,6.01734 0.0542,2.393114 -0.1446,4.780253 -0.28985,7.166573 -0.0943,1.570431 -0.10047,3.143874 -0.10728,4.716504 -0.011,1.3333 -0.0171,2.66662 -0.0151,3.99997 -0.004,0.56567 5.3e-4,1.13142 -0.003,1.69709 -7.9e-4,0.14739 5.3e-4,0.2949 -0.006,0.44212 -0.002,0.0364 -0.0523,0.0918 -0.0194,0.10762 1.17521,0.56539 2.38004,1.06705 3.57005,1.60058 0,0 -3.5016,-1.8662 -3.5016,-1.8662 v 0 c 4.07766,2.42897 3.46798,3.34873 3.45544,1.49808 -0.004,-0.56695 5.3e-4,-1.134 -0.005,-1.70096 2e-4,-1.33686 -0.009,-2.67367 -0.0107,-4.01053 0.009,-1.5679 0.0267,-3.136136 0.0941,-4.702798 0.10399,-2.403202 0.25104,-4.806712 0.24355,-7.212827 0.0167,-1.986862 0.0119,-3.974121 0.0557,-5.9606 z"
         id="path42" />
      <path
         style="baseline-shift:baseline;display:inline;overflow:visible;vector-effect:none;enable-background:accumulate;stop-color:#000000;stop-opacity:1"
         d="m 125.10742,83.246094 0.004,0.167968 c 0.0436,2.003803 0.0399,4.009141 0.0566,6.015625 0.054,2.386076 -0.14568,4.770397 -0.29102,7.158204 v 0.002 c -0.0945,1.574159 -0.10061,3.1481 -0.10742,4.720709 -0.011,1.33354 -0.0157,2.6682 -0.0137,4.00195 -0.004,0.56602 -3.9e-4,1.13124 -0.004,1.69531 -7.9e-4,0.14835 5.2e-4,0.29383 -0.006,0.4375 0.001,-0.0249 -0.001,-10e-4 -0.0137,0.0273 -0.006,0.0143 -0.0171,0.0324 -0.0176,0.0664 -5.1e-4,0.034 0.0306,0.0912 0.0684,0.10938 0.37817,0.18193 0.76418,0.34195 1.14649,0.51367 0.87902,0.62441 1.91974,1.35463 2.16211,1.56055 0.0455,0.0387 0.0844,0.0695 0.11914,0.0937 0.0347,0.0242 0.0628,0.0445 0.10937,0.0527 0.0233,0.004 0.0554,0.004 0.084,-0.01 0.0286,-0.0135 0.0491,-0.0373 0.0605,-0.0586 0.0229,-0.0425 0.024,-0.0789 0.0254,-0.11914 0.006,-0.16084 -0.036,-0.43546 -0.0391,-0.89258 -0.004,-0.56529 -3.5e-4,-1.13173 -0.006,-1.69922 2e-4,-1.33733 -0.008,-2.67523 -0.01,-4.01171 0.009,-1.56688 0.0265,-3.133374 0.0937,-4.697274 0.10394,-2.402011 0.25164,-4.8064 0.24414,-7.216797 0.0167,-1.987583 0.0109,-3.974135 0.0547,-5.958984 l 0.002,-0.0625 z m 0.20703,0.330078 3.31446,1.689453 c -0.0423,1.966606 -0.0401,3.931817 -0.0566,5.896484 v 0.002 c 0.007,2.401834 -0.13815,4.802639 -0.24219,7.207032 v 0.002 c -0.0675,1.568774 -0.0867,3.136809 -0.0957,4.705079 v 0.002 c 0.002,1.33723 0.0119,2.67337 0.0117,4.00976 0.006,0.56578 -1e-4,1.13322 0.004,1.70118 6.4e-4,0.0951 0.005,0.0983 0.008,0.17968 l -3.30468,-1.75976 -0.004,-0.002 c 4e-4,-0.0664 0.004,-0.1337 0.004,-0.19921 0.004,-0.56662 -0.002,-1.13261 0.002,-1.69727 v -0.002 c -0.002,-1.33295 0.005,-2.66499 0.0156,-3.99805 0.007,-1.572653 0.0134,-3.144231 0.10743,-4.710934 0.14512,-2.384185 0.34326,-4.774333 0.28906,-7.173828 v -0.002 c -0.0162,-1.948469 -0.0129,-3.899282 -0.0527,-5.849609 z m -0.36914,23.876958 c 0.10948,0.0663 0.0793,0.067 0.18164,0.13085 -0.0639,-0.0302 -0.12961,-0.0574 -0.19336,-0.0879 0.005,-0.014 0.0103,-0.0136 0.0117,-0.0391 v -0.002 c 3e-5,-6.6e-4 -3e-5,-0.001 0,-0.002 z m 1.88477,1.11328 c 0.48089,0.21084 0.95895,0.43071 1.4375,0.64453 0.009,0.14264 0.0191,0.34958 0.0195,0.41211 -0.0204,-0.0159 -0.0385,-0.0291 -0.0664,-0.0527 -0.14757,-0.12538 -1.00183,-0.69255 -1.39062,-1.0039 z"
         id="path43" />
    </g>
    <g
       id="path20"
       style="opacity:1"
       transform="matrix(1,0,0,0.98838719,62.933088,-19.759911)">
      <path
         style="baseline-shift:baseline;display:inline;overflow:visible;vector-effect:none;fill:#ff0000;enable-background:accumulate;stop-color:#000000;stop-opacity:1"
         d="m 56.942146,142.99892 c -0.87208,2.40624 -1.709876,4.82317 -2.650258,7.20418 -1.202346,3.20811 -2.073492,6.52569 -2.946143,9.83441 -0.812011,2.71818 -1.293233,5.51933 -1.661297,8.32763 -0.262322,2.1639 -0.322694,4.34338 -0.34435,6.52061 0.01323,2.47936 0.02371,4.95876 0.01196,7.43814 -0.0078,1.81446 -0.01442,3.62891 -0.01146,5.44338 0.05458,1.61497 -0.291531,3.20591 -0.533251,4.79467 -0.0059,0.83528 -0.344221,1.74224 -0.182499,2.57983 0.03101,0.1606 0.104293,0.31006 0.15644,0.46509 2.699231,2.84663 6.493406,3.46196 10.125331,4.00565 2.415154,0.4283 4.840452,0.15981 7.25872,-0.0598 0.361082,-0.0312 0.723643,-0.0484 1.083243,-0.0936 1.2817,-0.16101 2.541292,-0.41862 3.830172,-0.54239 1.634599,-0.15696 2.437022,-0.18114 4.117332,-0.2718 3.746495,-0.11324 7.500301,-0.27093 11.248211,-0.14401 1.41849,0.0916 0.76794,0.0368 1.95257,0.15304 0,0 -3.13316,-2.31352 -3.13316,-2.31352 v 0 c -1.14406,-0.0636 -0.51381,-0.0337 -1.89107,-0.0827 -3.728902,-0.0551 -7.456995,0.0907 -11.182934,0.2258 -1.4638,0.0677 -2.754892,0.11183 -4.207992,0.2356 -1.30111,0.11082 -2.578341,0.34582 -3.872608,0.5019 -0.356997,0.0431 -0.715997,0.0675 -1.073997,0.10118 -2.395675,0.22519 -4.796975,0.41824 -7.187015,-0.002 -1.411853,-0.21336 -2.833266,-0.42017 -4.204948,-0.83208 -0.41039,-0.12323 -1.535216,-0.7154 -1.208501,-0.43816 0.279541,0.23721 3.789717,2.27345 1.932234,1.19332 -0.07078,-0.11179 -0.167489,-0.21089 -0.212331,-0.33537 -0.215421,-0.59802 0.124447,-1.87394 0.115359,-2.51927 0.213518,-1.61353 0.559289,-3.22403 0.533042,-4.85697 0.0019,-1.82035 -0.0073,-3.64068 -0.02185,-5.46097 -0.02037,-2.4752 -0.02652,-4.95074 0.0029,-7.42587 0.01802,-2.16978 0.05059,-4.34275 0.283708,-6.50234 0.330276,-2.80053 0.821028,-5.5825 1.638281,-8.28631 0.801987,-3.314 1.636514,-6.6315 2.879929,-9.81335 0.957561,-2.36739 1.80512,-4.77755 2.808986,-7.12528 z"
         id="path44" />
      <path
         style="baseline-shift:baseline;display:inline;overflow:visible;vector-effect:none;enable-background:accumulate;stop-color:#000000;stop-opacity:1"
         d="m 56.888672,142.85547 -0.04102,0.10937 c -0.872398,2.40712 -1.709094,4.8228 -2.648437,7.20118 v 0.002 c -1.204727,3.21446 -2.076586,6.5351 -2.949219,9.84375 -0.81397,2.72527 -1.295735,5.52954 -1.664063,8.33984 v 0.002 c -0.263066,2.17004 -0.324035,4.35283 -0.345703,6.53125 v 0.002 c 0.01323,2.47928 0.02347,4.95872 0.01172,7.4375 -0.0078,1.8145 -0.01468,3.62854 -0.01172,5.44336 v 0.002 0.002 c 0.05402,1.5985 -0.288888,3.18242 -0.53125,4.77539 l -0.002,0.008 v 0.006 c -0.0057,0.80879 -0.348878,1.72333 -0.179687,2.59961 0.03438,0.17805 0.10889,0.33191 0.158203,0.47851 l 0.0078,0.0215 0.01563,0.0156 c 2.725536,2.87437 6.548042,3.49148 10.179688,4.03516 2.433562,0.43156 4.868202,0.16089 7.285156,-0.0586 0.358503,-0.031 0.723153,-0.0479 1.087891,-0.0937 1.286749,-0.16164 2.544263,-0.41986 3.826172,-0.54297 1.6317,-0.15668 2.43189,-0.18088 4.111328,-0.27148 3.745979,-0.11322 7.496723,-0.26908 11.238281,-0.14258 1.419087,0.0916 0.764088,0.0361 1.949219,0.15235 l 0.361328,0.0352 -3.449219,-2.54687 -0.0293,-0.002 c -1.143762,-0.0636 -0.515679,-0.033 -1.892578,-0.082 h -0.002 c -3.732492,-0.0551 -7.463704,0.0895 -11.189453,0.22461 -1.463093,0.0677 -2.756803,0.11231 -4.212891,0.23633 -1.307507,0.11137 -2.584814,0.34637 -3.875,0.50195 -0.353535,0.0427 -0.712543,0.0677 -1.072265,0.10157 -2.394778,0.2251 -4.786512,0.41735 -7.160157,0 l -0.002,-0.002 c -1.219389,-0.18427 -2.430997,-0.40601 -3.61914,-0.71484 -0.02061,-0.2543 -0.04884,-0.50238 -0.0098,-0.82813 0.05649,-0.47094 0.13957,-0.94987 0.134766,-1.29101 v 0.0156 c 0.212811,-1.60819 0.559694,-3.22494 0.533203,-4.87304 0.0019,-1.82011 -0.0069,-3.63915 -0.02148,-5.45899 -0.02037,-2.47481 -0.0255,-4.94965 0.0039,-7.42383 0.01801,-2.16868 0.05094,-4.33936 0.283203,-6.49218 v -0.002 c 0.329826,-2.79609 0.818033,-5.57195 1.632812,-8.26757 l 0.002,-0.002 v -0.004 c 0.801846,-3.31342 1.636594,-6.6248 2.876953,-9.79883 h -0.002 c 0.958717,-2.37025 1.806455,-4.77936 2.808594,-7.12305 l 0.03516,-0.084 z m 0.107422,0.28711 3.273437,1.82031 c -0.990097,2.32541 -1.83026,4.70631 -2.77539,7.04297 h -0.002 c -1.24647,3.18967 -2.080683,6.51159 -2.882812,9.82617 -0.818874,2.71022 -1.310051,5.49578 -1.640625,8.29883 -0.23378,2.16572 -0.267133,4.34345 -0.285156,6.51367 -0.02943,2.47609 -0.02233,4.95215 -0.002,7.42774 0.01455,1.82009 0.02338,3.63904 0.02148,5.45898 v 0.002 c 0.026,1.61778 -0.318978,3.22293 -0.533203,4.8418 v 0.008 0.008 c 0.0043,0.30419 -0.07745,0.78583 -0.134766,1.26368 -0.03618,0.30164 0.0015,0.54772 0.01563,0.8125 -0.123956,-0.0338 -0.255794,-0.0373 -0.378906,-0.0742 -0.187041,-0.0562 -0.575835,-0.23572 -0.869141,-0.36524 -0.146653,-0.0648 -0.265928,-0.11579 -0.347656,-0.13867 -0.02043,-0.006 -0.03778,-0.0114 -0.06445,-0.0117 -0.0067,-8e-5 -0.01419,4.3e-4 -0.02344,0.002 -0.0046,7.6e-4 -0.01,0.002 -0.01563,0.004 -0.0056,0.002 -0.017,0.008 -0.01758,0.008 -0.0012,6e-4 -0.04041,0.0342 -0.04102,0.0352 -6.05e-4,9.3e-4 -0.01754,0.0534 -0.01758,0.0547 -1.9e-5,6.3e-4 7.99e-4,0.0169 0.002,0.0234 0.0012,0.007 0.0022,0.0126 0.0039,0.0176 0.0034,0.01 0.008,0.0171 0.01172,0.0234 0.0074,0.0126 0.01391,0.0207 0.02148,0.0293 0.01514,0.0171 0.03222,0.0337 0.05469,0.0527 0.0474,0.0402 0.131823,0.095 0.251953,0.17188 0.120129,0.0769 0.273331,0.17149 0.443359,0.27539 0.340056,0.2078 0.745595,0.45038 1.085938,0.65234 0.06867,0.0408 0.07653,0.0453 0.138671,0.082 l 0.0059,0.01 0.02148,0.0117 c 0.211658,0.12308 0.336854,0.1947 0.421875,0.24414 0.0082,0.005 0.03383,0.0193 0.04102,0.0234 0.009,0.005 0.05246,0.0315 0.05859,0.0352 0.0028,0.002 0.01181,0.007 0.01367,0.008 3.98e-4,2.4e-4 0.0018,0.002 0.002,0.002 0.0011,6.2e-4 0.0026,2.3e-4 0.0059,0.002 1.24e-4,7e-5 0.0078,0.004 0.0078,0.004 0,0 0.09385,-0.17572 0.09375,-0.17578 -1.9e-4,-1.3e-4 -0.003,-10e-4 -0.0039,-0.002 -7.42e-4,-4.5e-4 -0.003,-0.001 -0.0039,-0.002 -0.0036,-0.002 -0.0064,-0.005 -0.01367,-0.01 -0.05389,-0.0319 -0.288567,-0.16917 -0.507812,-0.29882 -0.07243,-0.10758 -0.151849,-0.19704 -0.183594,-0.28516 -0.01308,-0.0363 0.0068,-0.12247 -0.002,-0.16602 1.184894,0.30398 2.387472,0.52953 3.58789,0.71094 l -0.0039,-0.002 c 2.406436,0.42312 4.818272,0.22918 7.214844,0.004 0.356277,-0.0335 0.715713,-0.058 1.076172,-0.10156 1.298348,-0.15657 2.574428,-0.39168 3.86914,-0.50195 1.450112,-0.12352 2.738618,-0.16664 4.203125,-0.23438 3.725478,-0.13508 7.45112,-0.28153 11.175782,-0.22656 1.357652,0.0483 0.783551,0.02 1.861328,0.0801 l 2.826172,2.08984 c -0.537141,-0.0536 -0.441112,-0.0518 -1.605469,-0.12695 h -0.002 -0.002 c -3.752968,-0.12709 -7.508198,0.0313 -11.253907,0.14453 h -0.002 c -1.679555,0.0906 -2.486321,0.11432 -4.123047,0.27149 -1.295851,0.12444 -2.55538,0.38259 -3.832031,0.54296 -0.354462,0.0446 -0.716417,0.0623 -1.080078,0.0937 -2.419582,0.21973 -4.835676,0.48559 -7.232422,0.0605 h -0.002 c -3.624739,-0.54261 -7.381608,-1.15955 -10.052734,-3.96484 -0.05337,-0.15252 -0.120384,-0.29061 -0.146485,-0.42578 -0.153425,-0.79462 0.174079,-1.68933 0.183594,-2.54688 l 0.002,-0.0137 c 0.240997,-1.5801 0.588183,-3.17203 0.533203,-4.79883 -0.0029,-1.81281 0.002,-3.62634 0.0098,-5.43945 0.01175,-2.47998 0.0015,-4.96002 -0.01172,-7.43945 0.02166,-2.17475 0.08245,-4.34939 0.34375,-6.50586 v -0.002 c 0.367686,-2.80502 0.848667,-5.60065 1.658203,-8.31054 v -0.002 l 0.002,-0.002 c 0.872511,-3.30819 1.74178,-6.62105 2.941407,-9.82227 v -0.002 c 0.926828,-2.34683 1.754012,-4.72714 2.611328,-7.0957 z m -5.853516,53.24414 c 0.169183,0.0739 0.354409,0.16176 0.472656,0.19726 0.143913,0.0432 0.294628,0.0489 0.439453,0.0879 0.01254,0.0806 -0.01921,0.19762 0.0059,0.26758 -0.295559,-0.17591 -0.614079,-0.36692 -0.892578,-0.53711 -0.0098,-0.006 -0.01575,-0.01 -0.02539,-0.0156 z"
         id="path45" />
    </g>
    <g
       id="path23"
       style="opacity:1"
       transform="matrix(1,0,0,0.98838719,62.933088,-19.759911)">
      <path
         style="baseline-shift:baseline;display:inline;overflow:visible;vector-effect:none;fill:#ff0000;enable-background:accumulate;stop-color:#000000;stop-opacity:1"
         d="m 92.375205,199.77257 c -0.0918,-1.81577 0.005,-3.62829 0.11825,-5.44024 0.2994,-2.73191 1.01314,-5.39522 1.62929,-8.06745 0.80703,-4.38136 1.89213,-8.69333 3.15833,-12.96241 0.92153,-2.6687 1.84175,-5.33915 2.807235,-7.99253 0.79603,-1.76374 1.24617,-3.63037 1.53714,-5.53454 0.26488,-1.78992 0.23104,-3.60126 0.30913,-5.40381 0.008,-0.0811 0.0959,-0.20487 0.0241,-0.24317 -1.14572,-0.61061 -2.309635,-1.20801 -3.537635,-1.62936 -0.13246,-0.0454 0.01,0.27993 0.0128,0.41994 0.005,0.20694 0.008,0.4139 0.01,0.62088 0.003,0.25097 0.008,1.35591 0.009,1.56907 -0.002,2.75645 0.0423,5.5128 0.0785,8.26896 0.20828,5.0548 0.24755,10.12582 0.63219,15.17146 0.19744,2.67655 0.67974,5.32078 1.199115,7.9505 0.36301,1.46482 0.81324,2.91297 1.30076,4.34182 0.71712,2.22238 1.14246,2.44633 4.32311,3.42272 0.23577,0.0724 0.26679,-0.41656 0.37139,-0.63991 0.13741,-0.29339 0.235,-0.60383 0.3525,-0.90575 1.81327,-5.75779 3.83178,-11.44263 6.03592,-17.06166 1.50852,-4.20133 3.60805,-8.17741 4.8381,-12.47656 0.60154,-2.24386 -0.0217,-4.31311 -0.84308,-6.39784 -0.12505,-0.2704 -0.13321,-0.63739 -0.37517,-0.81121 -1.13229,-0.81343 -2.28703,-1.71235 -3.6347,-2.06947 -0.3457,-0.0916 -0.20592,0.69862 -0.19019,1.05591 0.0228,0.51783 0.18101,1.02145 0.3038,1.52503 0.33605,1.3782 0.90656,3.14137 1.31628,4.46769 1.578,4.82156 2.82539,9.74469 3.97667,14.68314 0.745,3.20851 1.49336,6.4193 2.03627,9.66928 0.2775,1.69751 0.44631,3.40854 0.66202,5.11376 0.17701,0.91497 0.0838,0.4687 0.278,1.33916 0,0 3.5261,1.69645 3.5261,1.69645 v 0 c -0.20707,-0.85798 -0.10588,-0.42089 -0.30276,-1.31145 -0.25487,-1.71439 -0.38729,-3.44743 -0.7123,-5.15291 -0.57903,-3.27593 -1.38596,-6.51058 -2.14635,-9.74754 -1.16151,-4.95193 -2.50164,-9.86481 -4.00704,-14.72314 -0.43334,-1.48111 -0.86956,-2.87176 -1.20794,-4.37291 -0.10442,-0.46322 -0.1585,-0.9366 -0.25515,-1.40151 -0.0311,-0.14978 -0.005,-0.3492 -0.12784,-0.44078 -0.96401,-0.72037 -1.94383,-1.45709 -3.04906,-1.93321 -0.27487,-0.11841 0.27507,0.53163 0.4126,0.79745 0.8233,2.00155 1.49389,4.0054 0.97983,6.18835 -1.11252,4.33393 -3.0558,8.38601 -4.53671,12.59765 -2.17645,5.60325 -4.21509,11.25717 -6.35803,16.87301 -0.12202,0.27628 -0.23004,0.55918 -0.36606,0.82885 -0.0585,0.11607 -0.31853,0.24506 -0.21587,0.32483 0.97961,0.76113 2.10758,1.30917 3.16137,1.96376 -0.0909,-0.0977 -0.20493,-0.17809 -0.27271,-0.29303 -0.11191,-0.18974 -0.36557,-0.95984 -0.43157,-1.15097 -0.5062,-1.41953 -0.94274,-2.86751 -1.36143,-4.31377 -0.56626,-2.63222 -1.08888,-5.28292 -1.33402,-7.96693 -0.48209,-5.03469 -0.6125,-10.10477 -0.67954,-15.15955 0.0369,-2.72767 0.0798,-5.45543 0.0877,-8.18337 0.007,-0.72133 0.009,-1.44291 0.0307,-2.16402 0.004,-0.13556 0.12816,-0.33044 0.0159,-0.40654 -1.11857,-0.75825 -2.322775,-1.38808 -3.537315,-1.98054 -0.0793,-0.0387 0.0125,0.17611 0.0188,0.26416 0.0317,1.79573 -0.0317,3.59585 -0.23943,5.38059 -0.27342,1.8838 -0.73595,3.71871 -1.49581,5.47096 -0.9417,2.67827 -1.78451,5.39005 -2.69558,8.07875 -1.24839,4.27722 -2.30129,8.60151 -3.18195,12.96977 -0.68293,2.66724 -1.45324,5.32741 -1.76977,8.07004 -0.10389,1.80487 -0.21308,3.60831 -0.21508,5.41685 z"
         id="path46" />
      <path
         style="baseline-shift:baseline;display:inline;overflow:visible;vector-effect:none;enable-background:accumulate;stop-color:#000000;stop-opacity:1"
         d="m 98.363281,152.23047 c -0.04662,0.0215 -0.06268,0.0673 -0.06641,0.0918 -0.0074,0.0489 0.002,0.0758 0.0098,0.10937 0.0015,0.006 0.0023,0.009 0.0039,0.0156 -0.01568,0.0206 -0.03743,0.0405 -0.04102,0.0586 -0.01168,0.0588 -7.83e-4,0.10366 0.0098,0.1543 0.02016,0.0968 0.04935,0.20704 0.05273,0.25 0.01893,1.68557 -0.02986,3.37367 -0.224609,5.04687 -0.272478,1.87641 -0.732918,3.70148 -1.488281,5.44336 l -0.002,0.004 -0.002,0.002 c -0.942513,2.68058 -1.784785,5.39298 -2.695312,8.08008 v 0.002 l -0.002,0.002 c -1.249232,4.28011 -2.302409,8.60766 -3.183594,12.97852 -0.682037,2.66323 -1.453916,5.3265 -1.771484,8.07812 v 0.004 0.002 c -0.103879,1.80468 -0.21284,3.60939 -0.214844,5.42188 v 0.0625 l 3.736328,1.90234 -0.0098,-0.17187 c -0.09135,-1.80693 0.0061,-3.61444 0.119141,-5.42383 0.298292,-2.7218 1.010273,-5.38211 1.626953,-8.05664 v -0.002 -0.002 c 0.805883,-4.37513 1.88964,-8.68278 3.154297,-12.94726 l 0.002,-0.006 c 0.431305,-1.24904 0.879018,-2.49261 1.314453,-3.74024 0.09224,2.99112 0.145545,5.98246 0.373047,8.9668 0.197964,2.68365 0.679655,5.33222 1.199214,7.96289 l 0.002,0.002 v 0.002 c 0.36395,1.46862 0.81462,2.91902 1.30273,4.34961 0.36003,1.11575 0.65595,1.75385 1.27148,2.22656 0.61554,0.47271 1.52601,0.77131 3.11719,1.25976 0.0897,0.0276 0.18819,-0.006 0.24414,-0.0645 0.056,-0.0581 0.088,-0.12868 0.11524,-0.20508 0.0545,-0.15278 0.0908,-0.33409 0.13281,-0.42382 0.14119,-0.30146 0.23763,-0.61239 0.35351,-0.91016 l 0.002,-0.004 0.002,-0.004 c 1.81255,-5.7555 3.82986,-11.43768 6.0332,-17.05469 v -0.002 c 0.94167,-2.6226 2.05571,-5.18627 3.10547,-7.77539 0.69475,2.58218 1.48859,5.136 2.09571,7.74023 0.74501,3.20856 1.49294,6.41826 2.03515,9.66406 0.27663,1.6927 0.4443,3.40298 0.66016,5.10938 l 0.002,0.002 v 0.004 c 0.17692,0.91449 0.0852,0.47179 0.2793,1.34179 l 0.01,0.0469 3.75977,1.81055 -0.0488,-0.20508 c -0.2059,-0.85315 -0.10854,-0.43293 -0.30078,-1.30274 l -0.002,-0.008 c -0.25341,-1.70712 -0.38699,-3.44021 -0.71289,-5.15039 l 0.002,0.002 c -0.57984,-3.2805 -1.38826,-6.51784 -2.14844,-9.7539 -1.1266,-4.80309 -2.43444,-9.56389 -3.88476,-14.2793 0.48938,-2.16866 -0.0677,-4.18705 -0.85743,-6.19141 v -0.002 l -0.002,-0.004 c -0.0556,-0.1203 -0.0884,-0.27519 -0.13867,-0.42968 -0.0503,-0.1545 -0.1219,-0.31387 -0.26953,-0.41993 -1.1301,-0.81185 -2.29186,-1.72179 -3.66602,-2.08593 -0.0596,-0.0158 -0.1224,-0.013 -0.17578,0.0117 -0.0534,0.0247 -0.0924,0.0684 -0.11719,0.11523 -0.0495,0.0938 -0.0611,0.206 -0.0644,0.32813 -0.007,0.24424 0.0336,0.53424 0.041,0.70312 0.0236,0.53529 0.1849,1.04369 0.30664,1.54297 0.33757,1.38444 0.90899,3.14942 1.31836,4.47461 v 0.002 c 0.0241,0.0737 0.0366,0.15085 0.0605,0.22461 -0.009,0.0429 0.0102,0.0819 0,0.125 -1.10935,4.32063 -3.05007,8.36995 -4.5332,12.58789 v -0.004 c -1.89129,4.86911 -3.6822,9.7728 -5.52344,14.6582 -0.0402,-0.1376 -0.0891,-0.27254 -0.1289,-0.41016 l -0.002,-0.006 c -0.56552,-2.62912 -1.08575,-5.27411 -1.33007,-7.94922 -0.48153,-5.02875 -0.61265,-10.09578 -0.67969,-15.14843 v -0.004 c 0.0369,-2.72557 0.08,-5.45284 0.0879,-8.17969 v -0.002 c 0.007,-0.72114 0.01,-1.44152 0.0312,-2.16016 0.001,-0.0387 0.0289,-0.12136 0.0488,-0.20703 0.01,-0.0428 0.0185,-0.0871 0.0117,-0.13867 -0.004,-0.0269 -0.031,-0.0495 -0.0469,-0.0762 0.004,-0.013 0.005,-0.0152 0.01,-0.0293 0.009,-0.0282 0.0176,-0.0597 0.0137,-0.10156 -0.004,-0.0419 -0.0349,-0.097 -0.0801,-0.12109 -0.5641,-0.30064 -1.1678,-0.52897 -1.74805,-0.80469 -0.598939,-0.33015 -1.174536,-0.70314 -1.787104,-1.00196 -0.02288,-0.0112 -0.0608,-0.0255 -0.107422,-0.004 z m 0.177735,0.43359 c 0.561928,0.20054 1.089156,0.49475 1.630864,0.75196 0.55827,0.30813 1.14034,0.57737 1.66796,0.93164 -9.1e-4,0.006 -0.003,0.007 -0.004,0.0137 l -0.002,0.004 v 0.002 c -0.0783,1.80669 -0.0434,3.61549 -0.30664,5.39453 -0.29012,1.89794 -0.73859,3.75588 -1.529293,5.50781 l -0.002,0.002 -0.002,0.004 c -0.395055,1.0857 -0.765411,2.17959 -1.148438,3.26953 -0.05208,-1.72433 -0.143878,-3.44496 -0.214844,-5.16797 v -0.004 c -0.03619,-2.75506 -0.08012,-5.50965 -0.07813,-8.26368 -9.99e-4,-0.2131 -0.0067,-1.31716 -0.0098,-1.57031 -0.002,-0.20665 -0.0048,-0.41416 -0.0098,-0.62109 v -0.002 c -9.8e-5,-0.004 -0.0017,-0.008 -0.002,-0.0117 -9.06e-4,-0.0801 0.01106,-0.16012 0.0098,-0.24024 z m 14.125004,1.33399 c 0.005,-0.002 0.0122,-0.007 0.0391,0 1.32118,0.3501 2.46904,1.23968 3.60351,2.05468 0.0943,0.0678 0.1478,0.17831 0.19336,0.31836 0.0456,0.14006 0.079,0.30304 0.14844,0.45313 0.71044,1.80371 1.12037,3.5974 0.86719,5.48047 -0.41524,-1.41207 -0.83333,-2.74907 -1.15625,-4.18164 -0.10284,-0.45619 -0.15602,-0.92952 -0.25391,-1.40039 -0.0126,-0.0608 -0.015,-0.14813 -0.0293,-0.23829 -0.0143,-0.0902 -0.0447,-0.19311 -0.13672,-0.26171 -0.96385,-0.72025 -1.95039,-1.46286 -3.07032,-1.94532 -0.022,-0.009 -0.0421,-0.0178 -0.0664,-0.0215 -0.0243,-0.004 -0.0583,-0.005 -0.0937,0.0176 -0.0355,0.0224 -0.0527,0.0674 -0.0547,0.0957 -0.002,0.0283 0.004,0.0474 0.01,0.0664 0.0236,0.0759 0.0732,0.15158 0.13476,0.24414 0.12226,0.18385 0.29333,0.41432 0.35352,0.52929 0.70956,1.7255 1.15506,3.4566 0.97461,5.27735 -0.39483,-1.26741 -0.88563,-2.78931 -1.1875,-4.02735 -0.12384,-0.50787 -0.27875,-1.00549 -0.30078,-1.50586 -0.008,-0.18841 -0.045,-0.47216 -0.0391,-0.68945 0.003,-0.10864 0.02,-0.19847 0.041,-0.23828 0.0105,-0.0199 0.0183,-0.025 0.0234,-0.0273 z m 0.30468,0.57617 c 1.01389,0.47021 1.94211,1.13045 2.84961,1.80859 0.0308,0.023 0.0494,0.0629 0.0605,0.13281 0.0111,0.0699 0.0108,0.15906 0.0293,0.24805 0.0954,0.45895 0.14985,0.93209 0.25586,1.40235 0.33952,1.50621 0.77793,2.89896 1.21093,4.3789 v 0.002 c 0.0441,0.14241 0.0734,0.28914 0.11719,0.43165 -0.0144,0.0602 0.0104,0.11533 -0.006,0.17578 -0.40199,1.40468 -0.97771,2.74846 -1.51562,4.10547 -0.55446,-2.0302 -1.0001,-4.08937 -1.65039,-6.0918 0.42978,-2.13126 -0.18633,-4.09889 -0.98438,-6.03906 l -0.002,-0.004 -0.002,-0.004 c -0.0776,-0.15006 -0.24589,-0.37101 -0.36328,-0.54687 z m -14.603513,2 c 0.01045,2.26888 0.03467,4.53691 0.06445,6.80469 v 0.002 0.002 c 0.07779,1.88797 0.178865,3.77865 0.236328,5.66992 -0.492303,1.40621 -0.994382,2.80912 -1.480469,4.2168 l -0.002,0.002 v 0.002 c -1.266991,4.27174 -2.354304,8.58708 -3.16211,12.97265 -0.615406,2.66857 -1.328551,5.33556 -1.628906,8.07618 v 0.002 0.002 c -0.109837,1.75735 -0.193551,3.51838 -0.115234,5.28516 l -3.330078,-1.69531 c 0.0042,-1.78304 0.110216,-3.56214 0.21289,-5.34571 0.315256,-2.73159 1.08413,-5.38737 1.767578,-8.05664 v -0.004 l 0.002,-0.002 c 0.879854,-4.36426 1.930709,-8.68403 3.177734,-12.95703 l 0.002,-0.004 c 0.910221,-2.68642 1.752069,-5.39426 2.691406,-8.0664 l 0.002,-0.008 c 0.762181,-1.75978 1.225991,-3.60238 1.5,-5.49024 v -0.002 c 0.05431,-0.46664 0.027,-0.93799 0.0625,-1.40625 z m 3.433593,1.875 c -0.016,2.20247 -0.0405,4.40446 -0.0703,6.60742 v 0.002 0.002 c 0.0671,5.05561 0.19715,10.12864 0.67969,15.16797 0.24584,2.69023 0.76957,5.34579 1.33593,7.97851 v 0.002 l 0.002,0.004 c 0.0642,0.22176 0.14374,0.44032 0.20898,0.66211 -0.2407,0.63776 -0.47768,1.27719 -0.7207,1.91406 -0.12265,0.27807 -0.22903,0.55802 -0.36133,0.82031 -0.009,0.0182 -0.0827,0.0858 -0.14844,0.14844 -0.0329,0.0313 -0.0656,0.0616 -0.0879,0.11328 -0.0112,0.0258 -0.0202,0.0607 -0.0117,0.0977 0.008,0.0369 0.0325,0.0696 0.0586,0.0898 0.99061,0.76968 2.12205,1.31784 3.16992,1.96875 l 0.12695,-0.15234 c -0.10067,-0.10821 -0.20655,-0.18515 -0.25976,-0.27539 -0.0427,-0.0724 -0.13944,-0.31981 -0.22461,-0.55859 -0.0852,-0.23879 -0.1656,-0.47685 -0.19922,-0.57422 v -0.002 c -0.4199,-1.17751 -0.77682,-2.37889 -1.13086,-3.58007 1.87358,-4.96559 3.69228,-9.9509 5.61328,-14.89649 v -0.002 c 1.4503,-4.12458 3.33199,-8.11232 4.45703,-12.36524 0.62899,1.96054 1.07606,3.97341 1.61524,5.96094 -1.07333,2.67208 -2.22404,5.31962 -3.20118,8.04102 -2.20467,5.62049 -4.2233,11.30691 -6.03711,17.0664 -0.11777,0.30358 -0.21513,0.60962 -0.34765,0.89258 -0.0626,0.13362 -0.0945,0.31002 -0.14063,0.43945 -0.0231,0.0647 -0.0509,0.11458 -0.0703,0.13477 -0.0194,0.0202 -0.0129,0.0204 -0.041,0.0117 -1.58948,-0.48793 -2.48116,-0.78761 -3.05274,-1.22656 -0.57158,-0.43896 -0.84799,-1.02424 -1.20508,-2.13086 v -0.002 c -0.48646,-1.42575 -0.93498,-2.86852 -1.29687,-4.32812 -0.519189,-2.62877 -1.000352,-5.26805 -1.197268,-7.9375 v -0.002 c -0.239651,-3.14371 -0.298535,-6.303 -0.394531,-9.45899 0.435573,-1.24383 0.860095,-2.4924 1.310549,-3.73047 l 0.002,-0.008 c 0.79901,-1.77277 1.25155,-3.64565 1.54297,-5.55273 v -0.002 c 0.066,-0.44564 0.0408,-0.89294 0.0762,-1.33984 z m 15.8086,4.95117 c 1.39935,4.5804 2.67785,9.20076 3.77148,13.86328 0.7606,3.23786 1.56826,6.47083 2.14648,9.74219 0.32362,1.69815 0.45537,3.43129 0.71094,5.15039 l 0.002,0.002 v 0.004 c 0.1664,0.75266 0.14903,0.67106 0.25586,1.11133 l -3.29296,-1.58594 c -0.16785,-0.75061 -0.0998,-0.41573 -0.26758,-1.2832 -0.21548,-1.7034 -0.38393,-3.41549 -0.66211,-5.11719 -0.54361,-3.25415 -1.29212,-6.46733 -2.03711,-9.67578 -0.62844,-2.69572 -1.4478,-5.34407 -2.17188,-8.01758 0.554,-1.38298 1.12465,-2.75819 1.54493,-4.19336 z m -13.55469,25.78516 c 0.33298,1.12107 0.66353,2.24526 1.05664,3.34765 0.0326,0.0946 0.11148,0.33568 0.19726,0.57617 0.0668,0.18724 0.12872,0.33181 0.1875,0.45899 -0.90286,-0.53155 -1.83306,-1.01593 -2.65039,-1.64453 0.007,-0.009 0.008,-0.0102 0.0195,-0.0215 0.0533,-0.0508 0.13815,-0.1052 0.1875,-0.20312 0.1391,-0.27577 0.24851,-0.56083 0.36915,-0.83399 v -0.002 l 0.002,-0.002 c 0.21285,-0.55781 0.41984,-1.11734 0.63086,-1.67578 z"
         id="path47" />
    </g>
    <g
       id="path24"
       style="opacity:1"
       transform="matrix(1,0,0,0.98838719,62.933088,-19.759911)">
      <path
         style="baseline-shift:baseline;display:inline;overflow:visible;vector-effect:none;fill:#ff0000;enable-background:accumulate;stop-color:#000000;stop-opacity:1"
         d="m 131.8311,161.70035 c 0.0276,1.3919 0.0281,2.78417 0.0323,4.17629 -0.10896,2.71199 0.22973,5.39856 0.5003,8.09061 0.36877,4.05119 0.69093,8.10483 0.87039,12.16902 0.12904,2.24767 0.37884,4.49268 0.70613,6.72035 0.24741,1.50671 0.44497,3.02186 0.70344,4.52655 0.0543,0.22854 0.10862,0.45707 0.16293,0.68561 0,0 3.52393,1.68756 3.52393,1.68756 v 0 c -0.0588,-0.2214 -0.11756,-0.44279 -0.17634,-0.66419 -0.29424,-1.49832 -0.44629,-3.02149 -0.72309,-4.52347 -0.35941,-2.2336 -0.65387,-4.48257 -0.8303,-6.73798 -0.22459,-4.07286 -0.56935,-8.13524 -0.8987,-12.20061 -0.21867,-2.66042 -0.49441,-5.31559 -0.37594,-7.98909 0.004,-1.38114 0.005,-2.76244 0.0323,-4.14336 z"
         id="path48" />
      <path
         style="baseline-shift:baseline;display:inline;overflow:visible;vector-effect:none;enable-background:accumulate;stop-color:#000000;stop-opacity:1"
         d="m 131.72852,161.53516 0.002,0.16796 c 0.0276,1.39061 0.029,2.78154 0.0332,4.17383 -0.10891,2.72161 0.22973,5.41053 0.5,8.09961 0.3687,4.05043 0.69174,8.10222 0.8711,12.16406 v 0.002 c 0.12924,2.25124 0.3794,4.49852 0.70703,6.72851 v 0.002 c 0.24705,1.50453 0.4442,3.01999 0.70312,4.52734 v 0.002 l 0.002,0.004 c 0.0543,0.22855 0.10781,0.45701 0.16211,0.68555 l 0.0117,0.0469 3.76172,1.80078 -0.0547,-0.20898 c -0.0583,-0.21941 -0.11752,-0.43879 -0.17578,-0.6582 l -0.002,-0.006 c -0.29214,-1.48961 -0.44349,-3.00889 -0.7207,-4.51368 v -0.002 c -0.35886,-2.23039 -0.652,-4.47591 -0.82813,-6.72656 v -0.002 c -0.2247,-4.07418 -0.56916,-8.13671 -0.89844,-12.20118 h -0.002 c -0.21879,-2.66184 -0.49304,-5.31284 -0.375,-7.97656 v -0.002 -0.002 c 0.004,-1.38128 0.006,-2.76097 0.0332,-4.14062 v -0.0625 z m 0.20507,0.33007 3.32422,1.69336 c -0.0261,1.36134 -0.0273,2.72186 -0.0312,4.08203 -0.11846,2.68196 0.15656,5.34035 0.375,7.99805 0.32937,4.06563 0.67396,8.12637 0.89844,12.19727 l 0.002,0.002 c 0.1767,2.25888 0.47036,4.51056 0.83008,6.74609 v 0.002 c 0.2758,1.49655 0.42916,3.02089 0.72461,4.52539 v 0.004 0.002 c 0.0403,0.15166 0.0808,0.30341 0.12109,0.45508 L 134.89258,198 c -0.0501,-0.21088 -0.10029,-0.42194 -0.15039,-0.63281 l -0.002,-0.008 c -0.25724,-1.49881 -0.45398,-3.01196 -0.70117,-4.51757 v -0.002 c -0.32671,-2.22407 -0.57625,-4.46422 -0.70508,-6.70703 v -0.002 c -0.17958,-4.06588 -0.50231,-8.12057 -0.87109,-12.17188 v -0.002 c -0.27074,-2.69372 -0.60852,-5.37513 -0.5,-8.07617 v -0.002 -0.002 c -0.004,-1.33662 -0.005,-2.67391 -0.0293,-4.01172 z"
         id="path49" />
    </g>
    <g
       id="path25"
       style="opacity:1"
       transform="matrix(1,0,0,0.98838719,62.933088,-19.759911)">
      <path
         style="baseline-shift:baseline;display:inline;overflow:visible;vector-effect:none;fill:#ff0000;enable-background:accumulate;stop-color:#000000;stop-opacity:1"
         d="m 138.60402,154.06339 c 0.27575,2.33792 0.61909,4.66092 0.82147,7.00962 0.16474,3.32344 0.51991,6.62651 0.9816,9.92027 0.59224,2.98592 0.83091,6.01989 1.2146,9.03475 0.29602,2.60369 0.88602,5.15855 1.30528,7.74255 0.31855,1.80084 0.34731,3.63066 0.50499,5.4469 0.1996,1.13715 0.0684,2.40844 0.56634,3.48254 0.0798,0.17204 0.20328,0.32019 0.30491,0.48028 3.19952,2.65175 4.35116,2.49099 7.6358,2.44896 1.39835,-0.0241 2.79667,-0.0497 4.19519,-0.0617 0.68239,0.0681 1.36238,0.15721 2.04398,0.23261 0,0 -3.15771,-2.34789 -3.15771,-2.34789 v 0 c -0.68617,-0.0762 -1.372,-0.17276 -2.06317,-0.18687 -1.38739,0.0226 -2.77441,0.0609 -4.16179,0.0842 -0.833,0.004 -1.67665,0.0289 -2.50686,-0.0588 -0.23579,-0.0249 -0.89009,-0.25415 -0.70297,-0.10854 1.66835,1.29822 4.02105,2.25305 2.32822,1.54463 -0.12053,-0.12299 -0.26853,-0.22408 -0.36159,-0.36897 -0.62684,-0.97607 -0.41181,-2.31778 -0.61718,-3.40004 -0.21421,-1.83095 -0.23254,-3.68607 -0.57018,-5.50461 -0.41847,-2.58499 -0.995,-5.14234 -1.32631,-7.74153 -0.42905,-3.01441 -0.59973,-6.06386 -1.23571,-9.04867 -0.48145,-3.2881 -0.83139,-6.5889 -1.00882,-9.90843 -0.18126,-2.30494 -0.42605,-4.59958 -0.66793,-6.89666 z"
         id="path50" />
      <path
         style="baseline-shift:baseline;display:inline;overflow:visible;vector-effect:none;enable-background:accumulate;stop-color:#000000;stop-opacity:1"
         d="m 138.48242,153.88867 0.0215,0.18555 c 0.27597,2.33986 0.62023,4.66313 0.82226,7.00781 0.16502,3.32595 0.52062,6.63119 0.98242,9.92578 v 0.002 0.004 c 0.59073,2.97827 0.83075,6.0093 1.21485,9.02735 l -0.002,-0.002 c 0.29688,2.61122 0.88809,5.1684 1.30664,7.74805 0.31671,1.79041 0.34582,3.61849 0.50391,5.43945 v 0.004 l 0.002,0.004 c 0.19612,1.11731 0.0608,2.40032 0.57422,3.50782 0.0872,0.18788 0.2136,0.33947 0.31055,0.49218 l 0.008,0.0137 0.0137,0.01 c 1.60507,1.33027 2.70712,1.96302 3.82422,2.25391 1.11711,0.29089 2.23416,0.23779 3.875,0.2168 h 0.002 c 1.39516,-0.0241 2.78897,-0.0485 4.18359,-0.0606 6.4e-4,6e-5 0.001,-7e-5 0.002,0 0.6797,0.0679 1.35873,0.15694 2.04102,0.23242 l 0.36523,0.0391 -3.47461,-2.58398 -0.0273,-0.002 c -0.68422,-0.076 -1.37314,-0.17323 -2.07227,-0.1875 h -0.002 -0.002 c -1.3875,0.0226 -2.77415,0.0607 -4.16016,0.084 -0.48787,0.002 -0.97228,-0.0252 -1.45898,-0.0352 -0.12932,-0.7472 -0.16311,-1.53956 -0.30274,-2.27539 l 0.002,0.006 c -0.21331,-1.82322 -0.23286,-3.67853 -0.57227,-5.50781 v -0.002 c -0.4191,-2.58837 -0.99379,-5.14405 -1.32422,-7.73633 l -0.002,-0.002 c -0.42825,-3.00876 -0.59822,-6.05987 -1.23633,-9.05469 l 0.002,0.006 c -0.48106,-3.28548 -0.83056,-6.58238 -1.00781,-9.89844 v -0.002 -0.002 c -0.1814,-2.30678 -0.4261,-4.60144 -0.66797,-6.89843 l -0.006,-0.0547 z m 0.24219,0.34766 3.30859,1.6875 c 0.24001,2.27887 0.48244,4.55308 0.66211,6.83789 l -0.002,-0.002 c 0.17761,3.323 0.52793,6.62724 1.00976,9.91796 l 0.002,0.004 v 0.002 c 0.63385,2.9748 0.80452,6.02291 1.23437,9.04297 0.33215,2.6048 0.90846,5.16186 1.32617,7.74219 v 0.002 h 0.002 c 0.33553,1.80718 0.35332,3.66001 0.56836,5.49805 v 0.004 0.004 c 0.12967,0.68335 0.16303,1.47011 0.29101,2.23438 -0.2757,-0.009 -0.55567,0.009 -0.82812,-0.0195 -0.0956,-0.0101 -0.32351,-0.0723 -0.4961,-0.11524 -0.0863,-0.0215 -0.15347,-0.0388 -0.21484,-0.041 -0.0153,-5.6e-4 -0.0319,-0.002 -0.0566,0.006 -0.006,0.002 -0.0118,0.004 -0.0195,0.008 -0.008,0.004 -0.0247,0.0169 -0.0254,0.0176 -7.1e-4,6.6e-4 -0.0231,0.0304 -0.0234,0.0312 -3.8e-4,8e-4 -0.01,0.0401 -0.01,0.041 -5e-5,9.5e-4 -4.8e-4,0.0237 0.002,0.0332 0.002,0.009 0.007,0.017 0.01,0.0234 0.006,0.0129 0.0132,0.0219 0.0195,0.0293 0.0127,0.0148 0.0243,0.0256 0.0391,0.0371 0.7342,0.57131 1.5273,1.00872 2.125,1.33594 0.0686,0.0638 0.13582,0.14051 0.19336,0.19921 l 0.0156,0.0137 0.0176,0.008 c 0.21149,0.0885 0.36009,0.15201 0.45508,0.19141 0.0475,0.0197 0.0821,0.034 0.10547,0.043 0.0117,0.004 0.0186,0.007 0.0293,0.01 0.003,7.9e-4 0.006,0.001 0.01,0.002 0.004,9.2e-4 0.021,0.004 0.0215,0.004 2.2e-4,0 0.0292,-0.004 0.0293,-0.004 1.3e-4,-3e-5 0.0625,-0.0487 0.0625,-0.0488 4e-5,-7e-5 0.004,-0.0839 0.004,-0.084 -5e-5,-1.2e-4 -0.0155,-0.0291 -0.0156,-0.0293 -2.7e-4,-3.1e-4 -0.0141,-0.0129 -0.0176,-0.0156 -0.003,-0.003 -0.006,-0.004 -0.008,-0.006 -0.005,-0.003 -0.007,-0.005 -0.0117,-0.008 -0.008,-0.005 -0.019,-0.011 -0.0312,-0.0176 -0.0244,-0.0132 -0.0573,-0.0306 -0.0996,-0.0527 -0.0847,-0.0443 -0.2058,-0.10576 -0.35156,-0.18359 -0.0699,-0.0373 -0.20814,-0.1374 -0.28906,-0.18164 -0.0433,-0.0424 -0.10128,-0.0868 -0.13086,-0.13281 -0.16452,-0.25617 -0.17778,-0.58606 -0.2461,-0.88867 0.46977,0.008 0.94225,0.0354 1.40625,0.0332 1.3868,-0.0233 2.77287,-0.0614 4.15821,-0.084 0.67349,0.0138 1.34721,0.10774 2.02539,0.1836 l 2.83984,2.11133 c -0.55763,-0.0649 -1.11486,-0.13543 -1.67578,-0.19141 l -0.006,-0.002 h -0.006 c -1.39917,0.012 -2.79703,0.0384 -4.19531,0.0625 -1.6438,0.021 -2.74251,0.0702 -3.82227,-0.21094 -1.07759,-0.2806 -2.15104,-0.89493 -3.74023,-2.21094 -0.10292,-0.15888 -0.21568,-0.29943 -0.28516,-0.44922 -0.48245,-1.0407 -0.35551,-2.30198 -0.55859,-3.45898 -0.15654,-1.80838 -0.18603,-3.63726 -0.50586,-5.44531 -0.41997,-2.58836 -1.00952,-5.14016 -1.30469,-7.73633 v -0.002 c -0.38312,-3.01039 -0.62164,-6.04477 -1.21484,-9.0371 v -0.004 c -0.46113,-3.29036 -0.81598,-6.58793 -0.98047,-9.90625 v -0.002 -0.002 c -0.19736,-2.29049 -0.52919,-4.55451 -0.80078,-6.82812 z m 7.27734,43.08984 c 0.0978,0.0247 0.20161,0.0567 0.27539,0.0645 0.30186,0.0319 0.60342,0.0128 0.90625,0.0215 0.0592,0.274 0.0973,0.55392 0.22852,0.80273 -0.44745,-0.25353 -0.90402,-0.52864 -1.41016,-0.88867 z"
         id="path51" />
    </g>
    <g
       id="path26"
       style="opacity:1"
       transform="matrix(1,0,0,0.98838719,62.933088,-19.759911)">
      <path
         style="baseline-shift:baseline;display:inline;overflow:visible;vector-effect:none;fill:#ff0000;enable-background:accumulate;stop-color:#000000;stop-opacity:1"
         d="m 86.156013,161.56505 a 0.0370554,0.0370554 0 0 1 -0.03705,0.037 0.0370554,0.0370554 0 0 1 -0.03706,-0.037 0.0370554,0.0370554 0 0 1 0.03706,-0.0371 0.0370554,0.0370554 0 0 1 0.03705,0.0371 z"
         id="path52" />
      <path
         style="baseline-shift:baseline;display:inline;overflow:visible;vector-effect:none;enable-background:accumulate;stop-color:#000000;stop-opacity:1"
         d="m 86.119141,161.39648 c -0.09196,0 -0.169922,0.076 -0.169922,0.16797 0,0.092 0.07796,0.16992 0.169922,0.16992 0.09196,0 0.169921,-0.078 0.169921,-0.16992 0,-0.092 -0.07796,-0.16797 -0.169921,-0.16797 z m 0,0.0742 c 0.05103,0 0.0957,0.0427 0.0957,0.0937 0,0.051 -0.04467,0.0957 -0.0957,0.0957 -0.05103,0 -0.0957,-0.0447 -0.0957,-0.0957 10e-7,-0.051 0.04467,-0.0937 0.0957,-0.0937 z"
         id="path53" />
    </g>
    <g
       id="path27"
       style="opacity:1"
       transform="matrix(1,0,0,0.98838719,62.933088,-19.759911)">
      <path
         style="baseline-shift:baseline;display:inline;overflow:visible;vector-effect:none;fill:#ff0000;enable-background:accumulate;stop-color:#000000;stop-opacity:1"
         d="m 55.357164,170.82174 c 1.367383,-0.007 2.737051,-0.10284 4.084447,0.16562 1.146493,0.2039 2.267926,0.534 3.422055,0.68567 1.622097,0.17449 3.255769,0.20675 4.885788,0.23381 1.485884,0.0209 2.971887,0.007 4.457842,0.008 1.579949,-0.001 3.159893,-0.003 4.739839,-0.008 1.743159,0.11642 3.446343,-0.16996 5.155149,-0.46214 0,0 -3.207991,-2.24576 -3.207991,-2.24576 v 0 c -1.684525,0.30982 -3.368518,0.54934 -5.088993,0.42536 -1.584301,-0.003 -3.168594,-0.004 -4.752893,-0.001 -1.484172,0.004 -2.968413,2.6e-4 -4.452527,-0.0131 -1.623576,-0.027 -3.253153,-0.0556 -4.863372,-0.28514 -1.145032,-0.21083 -2.275666,-0.49472 -3.423883,-0.69172 -1.376553,-0.18825 -2.763017,-0.0962 -4.148759,-0.13201 z"
         id="path54" />
      <path
         style="baseline-shift:baseline;display:inline;overflow:visible;vector-effect:none;enable-background:accumulate;stop-color:#000000;stop-opacity:1"
         d="m 51.845703,168.39258 3.478516,2.52929 h 0.0332 c 1.371714,-0.007 2.734267,-0.10096 4.064453,0.16407 h 0.002 c 1.139242,0.20261 2.263318,0.53252 3.427734,0.68554 h 0.002 c 1.627892,0.17512 3.264302,0.20732 4.894531,0.23438 1.487445,0.0209 2.973698,0.009 4.458984,0.01 1.579991,-0.001 3.160162,-0.003 4.740235,-0.008 l -0.0059,-0.002 c 1.75836,0.11743 3.468748,-0.17068 5.177735,-0.46289 l 0.240234,-0.041 -3.441406,-2.4082 -0.04102,0.008 c -1.681882,0.30934 -3.357853,0.54681 -5.064453,0.42383 l -0.0039,-0.002 h -0.0039 c -1.584385,-0.003 -3.167485,-0.003 -4.751953,0 -1.483824,0.004 -2.96749,-3.2e-4 -4.451172,-0.0137 -1.622211,-0.027 -3.246868,-0.0553 -4.847656,-0.28321 H 59.75 c -1.139567,-0.20999 -2.267971,-0.49376 -3.419922,-0.6914 h -0.002 -0.002 c -1.38982,-0.19007 -2.78056,-0.0991 -4.160156,-0.13477 z m 0.640625,0.21875 c 1.280095,0.017 2.553404,-0.0501 3.808594,0.12109 1.143219,0.19614 2.274603,0.47981 3.423828,0.69141 h 0.002 0.002 c 1.618402,0.2307 3.251363,0.26011 4.875,0.28711 h 0.002 c 1.484547,0.0134 2.968606,0.0157 4.453125,0.0117 1.584131,-0.003 3.167737,-0.001 4.751953,0.002 1.716385,0.12287 3.390661,-0.11799 5.060547,-0.42383 l 2.955078,2.06836 c -1.619001,0.27526 -3.228639,0.54693 -4.867187,0.4375 h -0.002 -0.0039 c -1.57982,0.005 -3.160328,0.007 -4.740235,0.008 -1.485972,-0.001 -2.971404,0.013 -4.455078,-0.008 H 67.75 c -1.628507,-0.027 -3.258026,-0.0588 -4.873047,-0.23242 h -0.002 C 61.732394,171.4239 60.61333,171.0938 59.46089,170.8887 h -0.002 c -1.351622,-0.26895 -2.714136,-0.17255 -4.064453,-0.16406 z"
         id="path55" />
    </g>
    <g
       id="path28"
       style="opacity:1"
       transform="matrix(1,0,0,0.98838719,62.933088,-19.759911)">
      <path
         style="baseline-shift:baseline;display:inline;overflow:visible;vector-effect:none;fill:#ff0000;enable-background:accumulate;stop-color:#000000;stop-opacity:1"
         d="m 59.322197,147.63932 c 2.102897,-0.0519 4.206827,-0.038 6.310143,-0.0265 1.651513,-0.0758 3.002401,0.0211 4.565742,0.58055 1.523421,0.6944 2.899318,1.64675 4.503955,2.15775 1.330269,0.26451 2.510705,-0.52059 3.690712,-1.0238 1.20363,-0.51918 1.982208,-0.36992 3.084814,0.26331 1.426612,0.8128 0.594887,0.33924 -2.492163,-1.42597 0,0 3.667173,1.42184 3.667173,1.42184 v 0 c -3.936476,-2.29615 -2.499712,-1.52014 -4.240988,-2.452 -1.191826,-0.53426 -2.080006,-0.52218 -3.280463,0.0216 -1.123408,0.49739 -2.246146,1.18131 -3.508748,0.79754 -1.565288,-0.58187 -2.936907,-1.54 -4.492215,-2.14311 -1.605904,-0.49312 -2.959208,-0.55638 -4.627798,-0.47178 -2.127602,0.0119 -4.255751,0.0243 -6.382961,-0.0265 z"
         id="path56" />
      <path
         style="baseline-shift:baseline;display:inline;overflow:visible;vector-effect:none;enable-background:accumulate;stop-color:#000000;stop-opacity:1"
         d="m 55.800781,145.20508 3.490235,2.53515 h 0.0332 c 2.100812,-0.0518 4.203248,-0.0388 6.30664,-0.0273 h 0.0039 0.002 c 1.642225,-0.0754 2.973432,0.0203 4.519531,0.57227 1.512699,0.68951 2.892507,1.64522 4.515625,2.16211 h 0.0059 l 0.0039,0.002 c 1.378489,0.2741 2.58238,-0.53137 3.75,-1.0293 1.182829,-0.51021 1.905232,-0.36867 2.996093,0.25781 0.246716,0.14057 0.335594,0.1903 0.447266,0.25391 0.04976,0.0283 0.176242,0.10021 0.199219,0.11328 0.0011,6e-4 0.0049,0.003 0.0059,0.004 0.0083,0.005 0.01375,0.008 0.01758,0.01 9.58e-4,5.5e-4 0.0013,0.002 0.002,0.002 3.31e-4,1.9e-4 0.0017,-1.4e-4 0.002,0 5.92e-4,3.3e-4 0.0038,0.004 0.0039,0.004 6e-5,4e-5 0.01563,0.006 0.01563,0.006 0,0 0.08406,-0.17964 0.08398,-0.17969 0,0 -0.002,-0.002 -0.002,-0.002 -3.34e-4,-1.9e-4 -0.0016,2.3e-4 -0.002,0 -1.33e-4,-8e-5 1.41e-4,-0.002 0,-0.002 -7.5e-4,-4e-4 -0.01065,-0.006 -0.02148,-0.0117 -9.94e-4,-5.7e-4 -0.0048,-0.003 -0.0059,-0.004 -0.0229,-0.013 -0.149479,-0.085 -0.199219,-0.11328 -0.25177,-0.14388 -1.115272,-0.63692 -1.78125,-1.01758 l 2.40625,0.9336 h 0.002 l 0.01563,0.006 0.08594,-0.17969 c -3.935799,-2.29575 -2.503051,-1.52136 -4.244141,-2.45313 l -0.0039,-0.002 -0.002,-0.002 c -1.209261,-0.54208 -2.146444,-0.52972 -3.363281,0.0215 -1.131884,0.50115 -2.222309,1.16233 -3.4375,0.79297 -1.547893,-0.57619 -2.91759,-1.53231 -4.486328,-2.14062 h -0.0039 l -0.002,-0.002 c -1.617338,-0.49663 -2.986256,-0.56111 -4.658203,-0.47656 h -0.0039 c -2.126315,0.0119 -4.253024,0.0253 -6.376953,-0.0254 z m 0.628906,0.20898 c 2.024968,0.0426 4.048815,0.0367 6.072266,0.0254 h 0.0039 0.002 c 1.661942,-0.0843 2.998488,-0.0213 4.589844,0.4668 1.538854,0.59748 2.910611,1.55343 4.490235,2.14062 l 0.002,0.002 h 0.0039 c 1.310013,0.39818 2.463193,-0.30715 3.578125,-0.80078 1.184077,-0.53636 2.024828,-0.54793 3.199219,-0.0215 1.27205,0.68074 1.868517,1.06045 3.111328,1.79883 l -2.447266,-0.94727 -0.01367,-0.006 -0.08594,0.17968 c 0.762989,0.43629 0.96572,0.55152 1.453125,0.83008 -0.631146,-0.16187 -1.261966,-0.17921 -2.035156,0.1543 v -0.002 c -1.190533,0.5077 -2.347294,1.27089 -3.626954,1.01954 -1.58368,-0.50559 -2.954072,-1.45392 -4.486328,-2.15235 h -0.0039 l -0.0039,-0.002 c -1.57512,-0.56367 -2.944505,-0.6615 -4.59961,-0.58594 h -0.0059 c -2.090228,-0.0114 -4.181482,-0.0255 -6.273437,0.0254 z"
         id="path57" />
    </g>
    <g
       id="path31"
       style="opacity:1"
       transform="matrix(1,0,0,0.98838719,62.933088,-19.759911)">
      <path
         style="baseline-shift:baseline;display:inline;overflow:visible;vector-effect:none;fill:#ff0000;enable-background:accumulate;stop-color:#000000;stop-opacity:1"
         d="m 78.952716,125.18433 c 4.783172,-0.20273 9.539171,0.54894 14.279967,1.07368 8.114047,0.94151 16.251307,1.68848 24.400247,2.25185 2.86505,0.19306 5.73327,0.33184 8.60469,0.36291 1.8196,-0.005 3.63915,-0.0226 5.4588,-0.0226 1.68519,0.0103 3.37035,0.003 5.05547,-0.0125 0.38757,-5.2e-4 0.77513,-0.001 1.16269,-0.002 0,0 -3.11041,-2.2598 -3.11041,-2.2598 v 0 c -0.38891,-5.3e-4 -0.77783,-7.9e-4 -1.16674,-10e-4 -1.69201,-0.0145 -3.38408,-0.0215 -5.0761,-0.001 -1.82375,0.01 -3.64751,0.009 -5.47127,0.01 -2.79144,0.002 -5.58243,-0.0728 -8.37018,-0.21802 -8.11097,-0.45317 -16.211479,-1.12201 -24.26819,-2.1775 -4.878826,-0.59287 -9.759518,-1.36493 -14.687523,-1.32025 z"
         id="path58" />
      <path
         style="baseline-shift:baseline;display:inline;overflow:visible;vector-effect:none;enable-background:accumulate;stop-color:#000000;stop-opacity:1"
         d="m 75.763672,122.76758 -0.302735,0.004 3.460938,2.51368 h 0.03516 c 4.769276,-0.20214 9.520406,0.54719 14.263672,1.07226 8.115633,0.9417 16.255813,1.68848 24.406243,2.25195 2.86631,0.19315 5.73546,0.33219 8.60938,0.36329 h 0.002 c 1.81941,-0.005 3.63868,-0.0234 5.45703,-0.0234 1.68589,0.0103 3.3712,0.004 5.05664,-0.0117 0.38757,-5.2e-4 0.77446,-9.5e-4 1.16211,-0.002 h 0.30664 l -3.38476,-2.45899 h -0.0312 c -0.38831,-5.3e-4 -0.77775,-0.002 -1.16602,-0.002 -1.6923,-0.0145 -3.38502,-0.0205 -5.07812,0 -1.82335,0.01 -3.64687,0.009 -5.47071,0.01 -2.7896,0.002 -5.57916,-0.0736 -8.36523,-0.21875 -8.1092,-0.45308 -16.206216,-1.12071 -24.259762,-2.17579 h -0.002 c -4.876434,-0.59258 -9.760172,-1.36704 -14.699219,-1.32226 z m 0.333984,0.2207 c 4.804117,-0.008 9.570848,0.71907 14.341797,1.29883 8.059876,1.0559 16.162647,1.72446 24.275387,2.17773 2.78943,0.14531 5.58173,0.22076 8.375,0.21875 1.82369,-10e-4 3.64851,2.4e-4 5.47266,-0.01 1.69094,-0.0205 3.3825,-0.0125 5.07422,0.002 0.37849,2.1e-4 0.75826,-5e-4 1.13672,0 l 2.83593,2.06055 c -0.2859,5.6e-4 -0.57146,0.002 -0.85742,0.002 h -0.002 c -1.6848,0.0155 -3.36824,0.022 -5.05273,0.0117 -1.8203,0 -3.63985,0.0184 -5.45899,0.0234 -2.86892,-0.031 -5.73386,-0.17031 -8.59765,-0.36328 -8.14745,-0.56327 -16.28403,-1.31063 -24.396489,-2.25196 -4.725415,-0.52303 -9.473996,-1.27009 -14.257813,-1.07226 z"
         id="path59" />
    </g>
  </g>
</svg>
